HIERARCHY
ROOT Hips
{
	OFFSET -412.092468 -576.953125 89.101967
	CHANNELS 6 Xposition Yposition Zposition Zrotation Yrotation Xrotation
	JOINT Spine
	{
		OFFSET 0.000000 2.080078 8.814247
		CHANNELS 6 Xposition Yposition Zposition Zrotation Yrotation Xrotation
		JOINT Spine1
		{
			OFFSET 0.000000 0.000000 8.844139
			CHANNELS 6 Xposition Yposition Zposition Zrotation Yrotation Xrotation
			JOINT Spine2
			{
				OFFSET 0.000000 0.000000 11.682266
				CHANNELS 6 Xposition Yposition Zposition Zrotation Yrotation Xrotation
				JOINT Spine3
				{
					OFFSET 0.000000 0.000000 11.746696
					CHANNELS 6 Xposition Yposition Zposition Zrotation Yrotation Xrotation
					JOINT Neck
					{
						OFFSET 0.000000 0.000000 17.658264
						CHANNELS 6 Xposition Yposition Zposition Zrotation Yrotation Xrotation
						JOINT Neck1
						{
							OFFSET 0.000000 0.000000 5.101517
							CHANNELS 6 Xposition Yposition Zposition Zrotation Yrotation Xrotation
							JOINT Head
							{
								OFFSET 0.000000 0.000000 5.101517
								CHANNELS 6 Xposition Yposition Zposition Zrotation Yrotation Xrotation
								JOINT HeadEnd
								{
									OFFSET 0.000000 0.000000 11.655090
									CHANNELS 6 Xposition Yposition Zposition Zrotation Yrotation Xrotation
									End Site
									{
										OFFSET 0.000000 0.000000 0.100006
									}
								}
							}
						}
					}
					JOINT RightShoulder
					{
						OFFSET -2.625397 0.000000 11.175217
						CHANNELS 6 Xposition Yposition Zposition Zrotation Yrotation Xrotation
						JOINT RightArm
						{
							OFFSET 0.000000 0.000000 10.434708
							CHANNELS 6 Xposition Yposition Zposition Zrotation Yrotation Xrotation
							JOINT RightForeArm
							{
								OFFSET 0.000000 0.000000 29.628418
								CHANNELS 6 Xposition Yposition Zposition Zrotation Yrotation Xrotation
								JOINT RightHand
								{
									OFFSET 0.000000 0.000000 22.857605
									CHANNELS 6 Xposition Yposition Zposition Zrotation Yrotation Xrotation
									JOINT RightHandThumb1
									{
										OFFSET -2.867310 -2.944275 3.959564
										CHANNELS 6 Xposition Yposition Zposition Zrotation Yrotation Xrotation
										JOINT RightHandThumb2
										{
											OFFSET 0.000000 0.000000 3.350403
											CHANNELS 6 Xposition Yposition Zposition Zrotation Yrotation Xrotation
											JOINT RightHandThumb3
											{
												OFFSET 0.000000 0.000000 3.756516
												CHANNELS 6 Xposition Yposition Zposition Zrotation Yrotation Xrotation
												JOINT RightHandThumb4
												{
													OFFSET 0.000000 0.000000 3.147339
													CHANNELS 6 Xposition Yposition Zposition Zrotation Yrotation Xrotation
													End Site
													{
														OFFSET 0.000000 0.000000 0.100006
													}
												}
											}
										}
									}
									JOINT RightHandIndex1
									{
										OFFSET -0.086761 -2.345276 10.030899
										CHANNELS 6 Xposition Yposition Zposition Zrotation Yrotation Xrotation
										JOINT RightHandIndex2
										{
											OFFSET 0.000000 0.000000 4.061096
											CHANNELS 6 Xposition Yposition Zposition Zrotation Yrotation Xrotation
											JOINT RightHandIndex3
											{
												OFFSET 0.000000 0.000000 3.248871
												CHANNELS 6 Xposition Yposition Zposition Zrotation Yrotation Xrotation
												JOINT RightHandIndex4
												{
													OFFSET 0.000000 0.000000 2.639709
													CHANNELS 6 Xposition Yposition Zposition Zrotation Yrotation Xrotation
													End Site
													{
														OFFSET 0.000000 0.000000 0.100006
													}
												}
											}
										}
									}
									JOINT RightHandMiddle1
									{
										OFFSET 0.104095 -0.006775 9.502945
										CHANNELS 6 Xposition Yposition Zposition Zrotation Yrotation Xrotation
										JOINT RightHandMiddle2
										{
											OFFSET 0.000000 0.000000 4.568726
											CHANNELS 6 Xposition Yposition Zposition Zrotation Yrotation Xrotation
											JOINT RightHandMiddle3
											{
												OFFSET 0.000000 0.000000 3.654984
												CHANNELS 6 Xposition Yposition Zposition Zrotation Yrotation Xrotation
												JOINT RightHandMiddle4
												{
													OFFSET 0.000000 0.000000 2.741241
													CHANNELS 6 Xposition Yposition Zposition Zrotation Yrotation Xrotation
													End Site
													{
														OFFSET 0.000000 0.000000 0.100006
													}
												}
											}
										}
									}
									JOINT RightHandRing1
									{
										OFFSET 0.086761 2.267456 8.921707
										CHANNELS 6 Xposition Yposition Zposition Zrotation Yrotation Xrotation
										JOINT RightHandRing2
										{
											OFFSET 0.000000 0.000000 4.061096
											CHANNELS 6 Xposition Yposition Zposition Zrotation Yrotation Xrotation
											JOINT RightHandRing3
											{
												OFFSET 0.000000 0.000000 3.654984
												CHANNELS 6 Xposition Yposition Zposition Zrotation Yrotation Xrotation
												JOINT RightHandRing4
												{
													OFFSET 0.000000 0.000000 2.741241
													CHANNELS 6 Xposition Yposition Zposition Zrotation Yrotation Xrotation
													End Site
													{
														OFFSET 0.000000 0.000000 0.100006
													}
												}
											}
										}
									}
									JOINT RightHandPinky1
									{
										OFFSET -0.173492 4.467224 7.976990
										CHANNELS 6 Xposition Yposition Zposition Zrotation Yrotation Xrotation
										JOINT RightHandPinky2
										{
											OFFSET 0.000000 0.000000 3.350403
											CHANNELS 6 Xposition Yposition Zposition Zrotation Yrotation Xrotation
											JOINT RightHandPinky3
											{
												OFFSET 0.000000 0.000000 2.842758
												CHANNELS 6 Xposition Yposition Zposition Zrotation Yrotation Xrotation
												JOINT RightHandPinky4
												{
													OFFSET 0.000000 0.000000 2.639709
													CHANNELS 6 Xposition Yposition Zposition Zrotation Yrotation Xrotation
													End Site
													{
														OFFSET 0.000000 0.000000 0.100006
													}
												}
											}
										}
									}
									JOINT RightForeArmEnd
									{
										OFFSET 0.000000 0.000000 0.000000
										CHANNELS 6 Xposition Yposition Zposition Zrotation Yrotation Xrotation
										End Site
										{
											OFFSET 0.000000 0.000000 0.100006
										}
									}
								}
								JOINT RightArmEnd
								{
									OFFSET 0.000000 0.000000 0.000000
									CHANNELS 6 Xposition Yposition Zposition Zrotation Yrotation Xrotation
									End Site
									{
										OFFSET 0.000000 0.000000 0.100006
									}
								}
							}
						}
					}
					JOINT LeftShoulder
					{
						OFFSET 2.625397 0.000000 11.175217
						CHANNELS 6 Xposition Yposition Zposition Zrotation Yrotation Xrotation
						JOINT LeftArm
						{
							OFFSET 0.000000 0.000000 10.813629
							CHANNELS 6 Xposition Yposition Zposition Zrotation Yrotation Xrotation
							JOINT LeftForeArm
							{
								OFFSET 0.000000 0.000000 28.724777
								CHANNELS 6 Xposition Yposition Zposition Zrotation Yrotation Xrotation
								JOINT LeftHand
								{
									OFFSET 0.644379 0.328857 25.716171
									CHANNELS 6 Xposition Yposition Zposition Zrotation Yrotation Xrotation
									JOINT LeftHandThumb1
									{
										OFFSET 2.867310 -2.944275 3.959564
										CHANNELS 6 Xposition Yposition Zposition Zrotation Yrotation Xrotation
										JOINT LeftHandThumb2
										{
											OFFSET 0.000000 0.000000 3.350403
											CHANNELS 6 Xposition Yposition Zposition Zrotation Yrotation Xrotation
											JOINT LeftHandThumb3
											{
												OFFSET 0.000000 0.000000 3.756516
												CHANNELS 6 Xposition Yposition Zposition Zrotation Yrotation Xrotation
												JOINT LeftHandThumb4
												{
													OFFSET 0.000000 0.000000 3.100006
													CHANNELS 6 Xposition Yposition Zposition Zrotation Yrotation Xrotation
													End Site
													{
														OFFSET 0.000000 0.000000 0.100006
													}
												}
											}
										}
									}
									JOINT LeftHandIndex1
									{
										OFFSET 0.086761 -2.345276 10.030899
										CHANNELS 6 Xposition Yposition Zposition Zrotation Yrotation Xrotation
										JOINT LeftHandIndex2
										{
											OFFSET 0.000000 0.000000 4.061096
											CHANNELS 6 Xposition Yposition Zposition Zrotation Yrotation Xrotation
											JOINT LeftHandIndex3
											{
												OFFSET 0.000000 0.000000 3.248871
												CHANNELS 6 Xposition Yposition Zposition Zrotation Yrotation Xrotation
												JOINT LeftHandIndex4
												{
													OFFSET 0.000000 0.000000 2.639709
													CHANNELS 6 Xposition Yposition Zposition Zrotation Yrotation Xrotation
													End Site
													{
														OFFSET 0.000000 0.000000 0.100006
													}
												}
											}
										}
									}
									JOINT LeftHandMiddle1
									{
										OFFSET -0.104095 -0.006775 9.502945
										CHANNELS 6 Xposition Yposition Zposition Zrotation Yrotation Xrotation
										JOINT LeftHandMiddle2
										{
											OFFSET 0.000000 0.000000 4.568726
											CHANNELS 6 Xposition Yposition Zposition Zrotation Yrotation Xrotation
											JOINT LeftHandMiddle3
											{
												OFFSET 0.000000 0.000000 3.654984
												CHANNELS 6 Xposition Yposition Zposition Zrotation Yrotation Xrotation
												JOINT LeftHandMiddle4
												{
													OFFSET 0.000000 0.000000 2.741241
													CHANNELS 6 Xposition Yposition Zposition Zrotation Yrotation Xrotation
													End Site
													{
														OFFSET 0.000000 0.000000 0.100006
													}
												}
											}
										}
									}
									JOINT LeftHandRing1
									{
										OFFSET -0.086761 2.267456 8.921707
										CHANNELS 6 Xposition Yposition Zposition Zrotation Yrotation Xrotation
										JOINT LeftHandRing2
										{
											OFFSET 0.000000 0.000000 4.061096
											CHANNELS 6 Xposition Yposition Zposition Zrotation Yrotation Xrotation
											JOINT LeftHandRing3
											{
												OFFSET 0.000000 0.000000 3.654984
												CHANNELS 6 Xposition Yposition Zposition Zrotation Yrotation Xrotation
												JOINT LeftHandRing4
												{
													OFFSET 0.000000 0.000000 2.741241
													CHANNELS 6 Xposition Yposition Zposition Zrotation Yrotation Xrotation
													End Site
													{
														OFFSET 0.000000 0.000000 0.100006
													}
												}
											}
										}
									}
									JOINT LeftHandPinky1
									{
										OFFSET 0.173492 4.467224 7.976990
										CHANNELS 6 Xposition Yposition Zposition Zrotation Yrotation Xrotation
										JOINT LeftHandPinky2
										{
											OFFSET 0.000000 0.000000 3.350403
											CHANNELS 6 Xposition Yposition Zposition Zrotation Yrotation Xrotation
											JOINT LeftHandPinky3
											{
												OFFSET 0.000000 0.000000 2.842758
												CHANNELS 6 Xposition Yposition Zposition Zrotation Yrotation Xrotation
												JOINT LeftHandPinky4
												{
													OFFSET 0.000000 0.000000 2.639709
													CHANNELS 6 Xposition Yposition Zposition Zrotation Yrotation Xrotation
													End Site
													{
														OFFSET 0.000000 0.000000 0.100006
													}
												}
											}
										}
									}
									JOINT LeftForeArmEnd
									{
										OFFSET 0.000000 0.000000 0.000000
										CHANNELS 6 Xposition Yposition Zposition Zrotation Yrotation Xrotation
										End Site
										{
											OFFSET 0.000000 0.000000 0.100006
										}
									}
								}
								JOINT LeftArmEnd
								{
									OFFSET 0.000000 0.000000 0.000000
									CHANNELS 6 Xposition Yposition Zposition Zrotation Yrotation Xrotation
									End Site
									{
										OFFSET 0.000000 0.000000 0.100006
									}
								}
							}
						}
					}
				}
			}
		}
	}
	JOINT RightUpLeg
	{
		OFFSET -11.289948 0.000000 0.000000
		CHANNELS 6 Xposition Yposition Zposition Zrotation Yrotation Xrotation
		JOINT RightLeg
		{
			OFFSET 0.000000 0.000000 -38.200329
			CHANNELS 6 Xposition Yposition Zposition Zrotation Yrotation Xrotation
			JOINT RightFoot
			{
				OFFSET 0.000000 0.000000 -39.900856
				CHANNELS 6 Xposition Yposition Zposition Zrotation Yrotation Xrotation
				JOINT RightToeBase
				{
					OFFSET 0.000000 -15.261658 0.000001
					CHANNELS 6 Xposition Yposition Zposition Zrotation Yrotation Xrotation
					JOINT RightToeBaseEnd
					{
						OFFSET 0.000000 -7.370728 0.000000
						CHANNELS 6 Xposition Yposition Zposition Zrotation Yrotation Xrotation
						End Site
						{
							OFFSET 0.000000 0.000000 0.100000
						}
					}
				}
				JOINT RightLegEnd
				{
					OFFSET 0.000000 0.000000 0.000000
					CHANNELS 6 Xposition Yposition Zposition Zrotation Yrotation Xrotation
					End Site
					{
						OFFSET 0.000000 0.000000 0.100000
					}
				}
			}
			JOINT RightUpLegEnd
			{
				OFFSET 0.000000 0.000000 0.000000
				CHANNELS 6 Xposition Yposition Zposition Zrotation Yrotation Xrotation
				End Site
				{
					OFFSET 0.000000 0.000000 0.099998
				}
			}
		}
	}
	JOINT LeftUpLeg
	{
		OFFSET 11.315674 0.000000 0.000000
		CHANNELS 6 Xposition Yposition Zposition Zrotation Yrotation Xrotation
		JOINT LeftLeg
		{
			OFFSET 0.000000 0.000000 -38.200329
			CHANNELS 6 Xposition Yposition Zposition Zrotation Yrotation Xrotation
			JOINT LeftFoot
			{
				OFFSET 0.000000 0.000000 -39.900856
				CHANNELS 6 Xposition Yposition Zposition Zrotation Yrotation Xrotation
				JOINT LeftToeBase
				{
					OFFSET 0.000000 -15.261658 0.000001
					CHANNELS 6 Xposition Yposition Zposition Zrotation Yrotation Xrotation
					JOINT LeftToeBaseEnd
					{
						OFFSET 0.000000 -7.539978 0.000000
						CHANNELS 6 Xposition Yposition Zposition Zrotation Yrotation Xrotation
						End Site
						{
							OFFSET 0.000000 0.000000 0.100000
						}
					}
				}
				JOINT LeftLegEnd
				{
					OFFSET 0.000000 0.000000 0.000000
					CHANNELS 6 Xposition Yposition Zposition Zrotation Yrotation Xrotation
					End Site
					{
						OFFSET 0.000000 0.000000 0.100000
					}
				}
			}
			JOINT LeftUpLegEnd
			{
				OFFSET 0.000000 0.000000 0.000000
				CHANNELS 6 Xposition Yposition Zposition Zrotation Yrotation Xrotation
				End Site
				{
					OFFSET 0.000000 0.000000 0.099998
				}
			}
		}
	}
}
MOTION
Frames: 2
Frame Time: 0.016667
0.431580 -31.906860 85.974213 2.178895 6.782313 -21.062913 -0.000003 2.080054 8.814243 -1.774592 -5.681204 9.958615 -0.000007 -0.000028 8.844153 -0.206151 -0.047379 3.921256 -0.000012 0.000010 11.682275 -3.242086 -0.606481 12.981129 0.000012 0.000013 11.746689 -1.146030 0.222080 6.504049 0.000007 0.000021 17.658255 0.346080 -2.529864 11.515199 -0.000011 -0.000026 5.101530 1.697959 0.047695 -1.314778 -0.000014 -0.000007 5.101480 -1.194095 0.712007 -21.247426 0.000001 0.000000 11.655075 -0.000000 0.000000 0.000000 -2.625393 -0.000018 11.175228 14.167829 -92.730685 1.025891 0.000015 0.000015 10.434669 -53.789884 -34.679613 51.759976 0.000002 0.000000 29.628410 10.600985 0.001458 32.953757 -0.000050 0.000012 22.857574 20.612898 -14.575701 -6.894046 -2.867329 -2.944290 3.959572 31.604549 -17.443463 51.240465 -0.000004 0.000008 3.350349 -13.067124 8.582414 -23.536733 0.000004 0.000008 3.756523 -8.692364 6.542662 -16.108680 -0.000001 -0.000005 3.147354 0.000000 -0.000000 -0.000000 -0.086739 -2.345274 10.030884 -11.662705 -14.965298 8.963051 -0.000005 -0.000024 4.061090 0.346269 -11.349640 1.615146 0.000004 0.000001 3.248865 -0.154118 -11.349655 1.615217 -0.000015 0.000016 2.639739 -0.000001 0.000004 -0.000003 0.104095 -0.006730 9.502956 -6.062534 -13.473947 4.897705 -0.000006 0.000006 4.568694 0.453009 -9.761052 0.517952 0.000004 -0.000017 3.654995 -0.048213 -9.760771 0.518055 0.000010 0.000015 2.741257 -0.000001 0.000004 -0.000002 0.086756 2.267453 8.921691 2.516466 -11.761408 1.449708 0.000018 0.000006 4.061088 -0.953873 -8.239363 -0.508822 -0.000003 -0.000029 3.654981 0.043793 -8.239337 -0.508485 -0.000004 -0.000002 2.741254 -0.000000 0.000000 0.000000 -0.173485 4.467248 7.976980 11.566053 -8.479791 -2.761139 0.000000 0.000023 3.350397 -1.934519 -6.197611 -1.209502 0.000007 0.000031 2.842782 0.065488 -6.197621 -1.209505 -0.000005 -0.000011 2.639687 0.000001 0.000001 -0.000000 -0.000016 0.000011 -0.000016 -0.000001 -0.000000 -0.000000 -0.000003 -0.000003 -0.000017 -0.000000 -0.000001 -0.000000 2.625401 -0.000001 11.175226 -11.478240 90.859575 -0.333628 0.000004 -0.000013 10.813622 46.753198 52.964555 49.555430 0.000018 0.000019 28.724745 -7.045105 0.600522 40.149061 0.644325 0.328808 25.716228 -11.475030 7.588169 -11.140262 2.867290 -2.944275 3.959564 -31.586719 17.619236 50.974583 -0.000019 -0.000008 3.350403 13.456759 -8.731331 -24.185275 0.000011 0.000023 3.756504 8.945645 -6.680284 -16.547327 0.000001 0.000007 3.100026 0.000000 0.000000 -0.000003 0.086777 -2.345204 10.030895 -5.688258 17.968127 -0.107141 0.000007 -0.000002 4.061111 0.303835 12.519458 -1.788333 -0.000009 -0.000027 3.248850 -0.196196 12.519510 -1.788331 0.000002 -0.000007 2.639706 0.000002 -0.000001 -0.000000 -0.104108 -0.006734 9.502946 -0.881815 15.292029 1.164413 -0.000005 0.000008 4.568722 0.445591 10.787351 -0.572207 -0.000003 -0.000015 3.655016 -0.051536 10.787339 -0.571671 0.000015 -0.000067 2.741255 0.000001 0.000002 -0.000000 -0.086781 2.267513 8.921719 6.815564 12.135104 3.536997 0.000013 -0.000011 4.061109 -0.957543 8.781520 0.541477 -0.000005 -0.000010 3.655002 0.039929 8.781362 0.543716 0.000012 -0.000022 2.741273 0.000003 -0.000003 -0.000001 0.173492 4.467264 7.977001 14.661180 7.831287 5.011561 -0.000008 -0.000006 3.350425 -1.936372 6.110431 1.192302 0.000014 -0.000023 2.842782 0.063611 6.110583 1.192131 -0.000016 -0.000011 2.639732 0.000001 0.000000 -0.000002 0.000016 0.000090 0.000016 -0.000002 0.000000 0.000000 0.000008 -0.000007 0.000005 -0.000002 -0.000000 -0.000001 -11.289920 0.000021 -0.000006 -7.434827 -3.667641 18.164222 0.000025 0.000134 -38.200298 -0.920317 0.285091 17.210528 0.000043 0.000068 -39.900845 -14.944652 1.857880 10.068621 -0.000014 -15.261717 0.000016 1.798033 0.222567 -15.151364 0.000018 -7.370792 -0.000001 0.000001 -0.000000 0.000001 0.000026 0.000066 0.000000 -0.000001 -0.000001 -0.000001 0.000032 0.000066 -0.000002 -0.000001 -0.000000 0.000001 11.315662 -0.000010 0.000015 -10.990123 -21.376023 12.169907 -0.000049 -0.000057 -38.200329 0.967250 -0.463361 25.594129 0.000001 0.000079 -39.900845 23.061082 9.500382 21.292649 -0.000008 -15.261713 0.000015 -0.557361 -2.904259 -15.978113 -0.000007 -7.540021 0.000000 -0.000003 -0.000002 0.000001 -0.000009 0.000096 -0.000002 0.000004 0.000001 -0.000001 0.000001 0.000001 -0.000004 -0.000000 0.000000 0.000002 
-0.253632 -31.794312 86.012405 3.246074 6.836664 -21.168974 -0.000008 2.080056 8.814243 -1.760905 -5.670132 10.115940 0.000006 0.000006 8.844137 -0.213292 -0.064203 3.982394 0.000002 0.000015 11.682271 -3.419466 -0.688513 12.834982 -0.000012 -0.000024 11.746692 -1.205995 0.232250 6.557839 -0.000001 0.000006 17.658237 0.015266 -2.465279 11.793826 -0.000002 -0.000004 5.101531 1.359312 0.123303 -1.154034 0.000010 0.000010 5.101483 -1.219903 0.624220 -21.248741 -0.000000 0.000001 11.655062 -0.000000 0.000000 -0.000000 -2.625372 -0.000019 11.175161 13.944461 -92.649289 1.078853 0.000046 -0.000008 10.434708 -53.913412 -35.604748 51.464768 0.000000 0.000038 29.628405 11.803909 -0.011126 33.160876 -0.000015 0.000027 22.857605 24.359521 -14.830578 -6.661469 -2.867325 -2.944290 3.959602 31.604563 -17.443460 51.240445 0.000011 -0.000008 3.350422 -13.067183 8.582397 -23.536941 -0.000004 -0.000004 3.756485 -8.692305 6.542704 -16.108496 -0.000026 -0.000001 3.147316 0.000000 0.000000 -0.000002 -0.086720 -2.345266 10.030914 -11.633369 -14.862483 8.468520 -0.000001 0.000020 4.061086 0.342878 -11.226919 1.598553 0.000005 0.000008 3.248879 -0.157126 -11.226878 1.598551 -0.000005 0.000011 2.639713 -0.000001 0.000002 -0.000002 0.104088 -0.006780 9.502953 -6.063835 -13.500724 4.330538 0.000010 -0.000020 4.568725 0.451440 -9.755340 0.517024 0.000011 0.000018 3.655011 -0.049506 -9.755337 0.517180 0.000007 -0.000006 2.741269 0.000001 0.000002 -0.000003 0.086763 2.267473 8.921701 2.452262 -12.080813 0.519586 -0.000010 0.000009 4.061100 -0.952117 -8.516912 -0.526114 -0.000004 -0.000017 3.654955 0.045978 -8.517329 -0.525846 -0.000005 -0.000007 2.741229 -0.000000 -0.000000 -0.000000 -0.173508 4.467220 7.977001 11.441287 -8.887823 -4.224095 -0.000002 -0.000003 3.350403 -1.923301 -6.704439 -1.309319 -0.000008 0.000009 2.842753 0.076696 -6.704478 -1.309311 0.000010 -0.000015 2.639716 0.000002 -0.000001 0.000000 0.000015 0.000042 0.000021 0.000002 0.000001 -0.000001 0.000001 0.000022 0.000009 -0.000003 0.000001 -0.000002 2.625374 0.000028 11.175187 -11.864068 90.571846 -0.410982 0.000011 -0.000010 10.813625 46.465032 52.676833 48.915605 -0.000002 0.000069 28.724758 -7.777041 0.601085 41.365559 0.644318 0.328804 25.716213 -16.680114 8.914740 -11.917568 2.867336 -2.944290 3.959587 -31.586712 17.619253 50.974600 0.000011 -0.000015 3.350414 13.456757 -8.731323 -24.185266 -0.000008 0.000004 3.756527 8.945654 -6.680296 -16.547346 0.000000 0.000004 3.100018 -0.000000 0.000000 -0.000001 0.086758 -2.345302 10.030880 -5.779169 17.340092 -0.055806 0.000010 0.000013 4.061071 0.317708 12.076965 -1.723160 0.000004 -0.000018 3.248878 -0.182288 12.076962 -1.723155 0.000009 -0.000008 2.639721 0.000000 0.000001 -0.000001 -0.104093 -0.006779 9.502941 -0.948821 14.883850 0.829869 0.000010 -0.000029 4.568730 0.446405 10.512274 -0.557638 0.000020 -0.000021 3.654969 -0.052373 10.512501 -0.557432 0.000002 0.000001 2.741239 0.000000 0.000000 0.000002 -0.086773 2.267464 8.921703 6.853913 12.382116 2.541195 -0.000011 0.000016 4.061108 -0.957280 8.900927 0.548839 -0.000005 -0.000003 3.654985 0.042720 8.900747 0.548824 -0.000008 0.000012 2.741243 -0.000001 -0.000001 -0.000001 0.173485 4.467196 7.976974 14.821326 8.815807 3.469795 -0.000008 -0.000005 3.350399 -1.927097 6.537379 1.276347 0.000005 0.000027 2.842751 0.072901 6.536955 1.276353 0.000009 0.000008 2.639734 -0.000001 0.000002 0.000001 -0.000005 -0.000005 -0.000002 0.000001 0.000000 0.000000 0.000017 0.000012 -0.000001 -0.000000 -0.000000 0.000001 -11.289947 -0.000008 0.000021 -8.318887 -3.940382 18.770145 0.000037 0.000088 -38.200344 -0.895910 0.266802 16.582272 0.000022 0.000084 -39.900841 -15.421321 2.520324 10.042650 0.000011 -15.261683 0.000007 1.723547 0.212989 -15.121706 0.000019 -7.370854 0.000001 0.000001 0.000000 -0.000001 0.000022 0.000105 0.000001 0.000002 0.000000 0.000002 0.000033 0.000060 -0.000004 -0.000000 0.000000 0.000000 11.315674 0.000043 -0.000008 -10.422574 -21.519720 11.206874 -0.000057 0.000057 -38.200340 0.796493 -0.387657 25.950851 -0.000025 0.000039 -39.900826 24.679096 8.462006 22.034597 -0.000047 -15.261723 0.000020 -0.285718 -3.010156 -15.928445 0.000004 -7.539997 0.000003 0.000003 -0.000001 -0.000001 -0.000013 0.000042 0.000000 0.000003 0.000001 -0.000002 0.000004 -0.000002 -0.000001 0.000000 -0.000001 -0.000000 
